<?xml version="1.0" standalone="no"?>
<!DOCTYPE svg PUBLIC "-//W3C//DTD SVG 20010904//EN"
 "http://www.w3.org/TR/2001/REC-SVG-20010904/DTD/svg10.dtd">
<svg version="1.0" xmlns="http://www.w3.org/2000/svg"
 width="525.000000pt" height="525.000000pt" viewBox="0 0 525.000000 525.000000"
 preserveAspectRatio="xMidYMid meet">
<metadata>
Created by potrace 1.14, written by Peter Selinger 2001-2017
</metadata>
<g transform="translate(0.000000,525.000000) scale(0.100000,-0.100000)"
fill="#000000" stroke="none">
<path d="M2642 4850 c-19 -4 -38 -12 -44 -18 -6 -6 -12 -57 -14 -113 -2 -57
-8 -107 -12 -111 -7 -7 -85 -15 -242 -23 -132 -8 -165 -11 -177 -18 -16 -10
-23 3 -23 45 0 70 -27 94 -115 103 -159 17 -388 27 -643 28 -138 1 -154 -1
-172 -19 -20 -20 -25 -57 -14 -110 6 -29 5 -30 -33 -31 -21 -1 -47 -4 -58 -6
-11 -3 -22 -6 -25 -6 -3 -1 -4 -229 -3 -508 8 -1649 2 -2975 -15 -2981 -6 -2
-14 9 -18 25 -17 70 -84 115 -174 115 -26 0 -58 9 -76 19 -34 21 -98 25 -138
9 -36 -13 -58 -54 -61 -109 -2 -41 -7 -54 -38 -84 -36 -34 -42 -46 -38 -75 1
-8 -14 -28 -34 -45 -29 -25 -38 -41 -42 -77 -3 -25 -9 -49 -12 -55 -14 -21
-12 -77 3 -100 27 -41 74 -59 156 -61 41 -1 79 1 85 4 5 4 16 7 23 8 7 1 35 8
62 15 32 8 54 9 60 3 5 -5 10 -40 12 -79 l3 -69 -83 -2 c-72 -1 -85 -4 -103
-23 -22 -23 -20 -61 4 -86 24 -24 149 -35 237 -21 66 11 99 11 165 2 28 -3 97
-6 155 -5 265 4 571 2 740 -5 102 -4 226 -9 275 -11 50 -2 140 -6 200 -10 336
-17 658 -26 1060 -27 307 -2 323 -1 395 21 41 13 96 33 121 46 29 14 73 24
120 28 41 4 95 13 122 21 26 8 47 12 47 9 0 -3 6 -1 13 5 6 5 45 21 84 36 40
14 90 34 110 45 88 45 92 91 8 97 -55 5 -83 9 -107 19 -14 6 -16 11 -7 27 6
11 7 18 1 14 -5 -3 -2 14 6 38 9 23 22 43 29 44 7 0 52 1 99 2 63 1 97 6 123
20 40 20 69 64 64 95 -2 11 -6 55 -11 97 -9 88 -27 121 -85 151 -31 16 -37 24
-37 51 0 36 -32 101 -65 133 -33 32 -109 55 -159 47 -22 -3 -57 -7 -77 -7 -42
-2 -99 -41 -99 -68 0 -21 -37 -50 -55 -42 -14 5 -52 -12 -70 -31 -9 -11 -14
-24 -19 -51 -2 -12 -13 -18 -27 -13 -15 5 -10 712 5 736 3 6 2 13 -4 17 -6 4
-8 11 -4 16 11 18 22 1769 14 2295 l-3 221 -81 27 c-44 14 -94 29 -111 32 -16
4 -34 10 -40 14 -5 4 -37 13 -70 20 -33 7 -64 17 -70 22 -5 4 -19 8 -32 8 -25
0 -49 41 -39 66 8 21 -37 49 -101 63 -32 7 -67 17 -78 21 -18 8 -130 36 -178
46 -11 2 -34 8 -51 13 -17 6 -44 13 -61 16 -16 2 -41 7 -55 10 -14 3 -45 10
-70 15 -25 5 -56 12 -70 16 -38 10 -221 13 -258 4z"/>
</g>
</svg>
